<svg width="56" height="56" xmlns="http://www.w3.org/2000/svg">

 <g>
  <title>background</title>
  <rect fill="none" id="canvas_background" height="58" width="58" y="-1" x="-1"/>
 </g>
 <g>
  <title>Layer 1</title>
  <path fill="#eece1a" id="svg_2" d="m38.8,24.6c-2.8,0 -3.7,2.7 -3.9,4.3l0,0.1l-0.4,1.5c1.2,1 2.7,1.7 4.2,1.7c2,0 3.8,-1.7 3.9,-3.9c0,-2 -1.7,-3.7 -3.8,-3.7z"/>
  <path stroke="#eece1a" fill="#eece1a" id="svg_3" d="m28.838272,3.7c-13.6659,0 -24.738272,10.823716 -24.738272,24.182716c0,13.359 11.072372,24.182716 24.738272,24.182716c13.6659,0 24.738272,-10.823716 24.738272,-24.182716c0,-13.359 -11.072372,-24.182716 -24.738272,-24.182716zm9.875359,31.593548c-1.995022,0 -3.690791,-0.585066 -5.187057,-1.462664l-1.695769,7.800876l-3.890293,0l2.394026,-10.726205c-0.997511,-1.365153 -1.995022,-2.925329 -2.69328,-4.387993l0,1.657686c0,3.997949 -3.291786,7.21581 -7.28183,7.21581c-3.990044,0 -7.28183,-3.217861 -7.28183,-7.21581l0,-9.751095l3.790542,0l0,9.751095c0,1.950219 1.596018,3.510394 3.591039,3.510394c1.995022,0 3.591039,-1.560175 3.591039,-3.510394l0,-9.751095l3.790542,0c0.798009,2.437774 2.094773,5.363102 3.790542,7.995898c0.997511,-3.705416 3.790542,-5.948168 7.28183,-5.948168c4.089795,0 7.481332,3.315372 7.481332,7.313321c-0.199502,4.192971 -3.591039,7.508343 -7.680834,7.508343z"/>
 </g>
</svg>